# xmcd
#
# Track frame offsets:
#	150
#	28370
#	49435
#	70410
#	91592
#	112347
#	140957
#	160812
#
# Disc length: 2535 seconds
#
# Revision: 1
# Processed by: cddbd v1.4PL0 Copyright (c) Steve Scherf et al.
# Submitted via: audiograbber 1.81.02
#
DISCID=7b09e508
DTITLE=Kassav - Grands succés vol1
DYEAR=1900
DGENRE=National Folk
TTITLE0=zouk la se sel medikamen nou ni
TTITLE1=l'esancyel
TTITLE2=mwen di ou awa
TTITLE3=Pa bisouin pale
TTITLE4=en balate
TTITLE5=a la demande
TTITLE6=aie
TTITLE7=banzawa
EXTD=
EXTT0=
EXTT1=
EXTT2=
EXTT3=
EXTT4=
EXTT5=
EXTT6=
EXTT7=
PLAYORDER=
